# xmcd
#
# Track frame offsets:
#	150
#	4425
#	21900
#	40050
#	71700
#	90075
#	111675
#	143625
#	159450
#
# Disc length: 2595 seconds
#
# Revision: 1
# Processed by: cddbd v1.5.1PL0 Copyright (c) Steve Scherf et al.
# Submitted via: audiograbber 1.82.01
#
DISCID=720a2109
DTITLE=Champion Jack Dupree - Hamburg, December 1977 - Disc 1
DYEAR=1900
DGENRE=
TTITLE0=Champion Jack Dupree - Intro
TTITLE1=Champion Jack Dupree - Way Down In New Orleans
TTITLE2=Champion Jack Dupree - One Scotch, One Bourbon, One Beer
TTITLE3=Champion Jack Dupree - Bad Life
TTITLE4=Champion Jack Dupree - Ugly Woman
TTITLE5=Champion Jack Dupree - Medley - Ain't That A Shame - Swanee River - Blu
TTITLE5=eberry Hill
TTITLE6=Champion Jack Dupree - I Wonder How Long 'For I Change My Clothes
TTITLE7=Champion Jack Dupree - Wine Wine Wine
TTITLE8=Champion Jack Dupree - You Can Make It If You Try
EXTD=
EXTT0=
EXTT1=
EXTT2=
EXTT3=
EXTT4=
EXTT5=
EXTT6=
EXTT7=
EXTT8=
PLAYORDER=
